# Blender v2.76 (sub 0) OBJ File: ''
# www.blender.org
v -0.015037 0.466664 -0.997053
v 0.180054 0.466664 -0.977838
v 0.180054 0.013648 -0.977838
v 0.367647 0.466664 -0.920932
v 0.367647 0.013648 -0.920932
v 0.540534 0.466664 -0.828522
v 0.540534 0.013648 -0.828522
v 0.692070 0.466664 -0.704159
v 0.692070 0.013648 -0.704159
v 0.816433 0.466664 -0.552623
v 0.816433 0.013648 -0.552623
v 0.908843 0.466664 -0.379736
v 0.908843 0.013648 -0.379736
v 0.965749 0.466664 -0.192143
v 0.965749 0.013648 -0.192143
v 0.984963 0.466664 0.002947
v 0.984963 0.013648 0.002947
v 0.965749 0.466664 0.198038
v 0.965749 0.013648 0.198038
v 0.908843 0.466664 0.385631
v 0.908843 0.013648 0.385631
v 0.816433 0.466664 0.558518
v 0.816433 0.013648 0.558518
v 0.692070 0.466664 0.710054
v 0.692070 0.013648 0.710054
v 0.540534 0.466664 0.834417
v 0.540534 0.013648 0.834417
v 0.367647 0.466664 0.926827
v 0.367647 0.013648 0.926827
v 0.180054 0.466664 0.983733
v 0.180054 0.013648 0.983733
v -0.015037 0.466664 1.002947
v -0.015037 0.013648 1.002947
v -0.210127 0.466664 0.983733
v -0.210127 0.013648 0.983733
v -0.397720 0.466664 0.926827
v -0.397720 0.013648 0.926827
v -0.570607 0.466664 0.834417
v -0.570607 0.013648 0.834417
v -0.722144 0.466664 0.710054
v -0.722144 0.013648 0.710054
v -0.846507 0.466664 0.558517
v -0.846507 0.013648 0.558517
v -0.938916 0.466664 0.385630
v -0.938916 0.013648 0.385630
v -0.995822 0.466664 0.198037
v -0.995822 0.013648 0.198037
v -1.015037 0.466664 0.002946
v -1.015037 0.013648 0.002946
v -0.995822 0.466664 -0.192144
v -0.995822 0.013648 -0.192144
v -0.938916 0.466664 -0.379737
v -0.938916 0.013648 -0.379737
v -0.846506 0.466664 -0.552624
v -0.846506 0.013648 -0.552624
v -0.722142 0.466664 -0.704160
v -0.722142 0.013648 -0.704160
v -0.570606 0.466664 -0.828523
v -0.570606 0.013648 -0.828523
v -0.397719 0.466664 -0.920933
v -0.397719 0.013648 -0.920933
v -0.210125 0.466664 -0.977838
v -0.015037 0.013648 -0.997053
v -0.210125 0.013648 -0.977838
vt 0.341406 0.714499
vt 0.341406 0.660130
vt 0.455208 0.660130
vt 0.341406 0.608917
vt 0.455208 0.608917
vt 0.341406 0.562825
vt 0.455208 0.562825
vt 0.113802 0.562825
vt 0.113802 0.602023
vt 0.000000 0.602023
vt 0.113802 0.648114
vt 0.000000 0.648114
vt 0.113802 0.699328
vt 0.000000 0.699328
vt 0.113802 0.753696
vt 0.000000 0.753696
vt 0.113802 0.809129
vt 0.000000 0.809129
vt 0.113802 0.863498
vt 0.000000 0.863498
vt 0.113802 0.914712
vt 0.000000 0.914712
vt 0.113802 0.960803
vt 0.000000 0.960803
vt 0.113802 1.000000
vt 0.000000 1.000000
vt 0.227604 0.960803
vt 0.227604 0.921606
vt 0.341406 0.921606
vt 0.227604 0.875514
vt 0.341406 0.875514
vt 0.227604 0.824301
vt 0.341406 0.824301
vt 0.227604 0.769932
vt 0.341406 0.769932
vt 0.227604 0.714499
vt 0.227604 0.660131
vt 0.227604 0.608917
vt 0.227604 0.562825
vt 0.227604 0.602023
vt 0.227604 0.648114
vt 0.227604 0.699328
vt 0.227604 0.753696
vt 0.227604 0.809130
vt 0.227604 0.863498
vt 0.227604 0.914712
vt 0.455208 0.875514
vt 0.455208 0.824300
vt 0.131581 0.530797
vt 0.028453 0.148114
vt 0.471548 0.414711
vt 0.455208 0.714499
vt 0.455208 0.769932
vt 0.528453 0.148113
vt 0.868420 0.032029
vt 0.631580 0.530797
vt 0.000000 0.562825
vt 0.341406 0.960803
vt 0.455208 0.921605
vt 0.368419 0.032028
vt 0.409365 0.062825
vt 0.444188 0.102022
vt 0.471547 0.148113
vt 0.490393 0.199327
vt 0.500000 0.253695
vt 0.500000 0.309128
vt 0.490393 0.363497
vt 0.444188 0.460802
vt 0.409366 0.499999
vt 0.368420 0.530797
vt 0.322923 0.552010
vt 0.274624 0.562825
vt 0.225378 0.562825
vt 0.177078 0.552011
vt 0.090635 0.500000
vt 0.055813 0.460803
vt 0.028453 0.414712
vt 0.009607 0.363498
vt 0.000000 0.309130
vt 0.000000 0.253696
vt 0.009607 0.199328
vt 0.055812 0.102023
vt 0.090634 0.062826
vt 0.131580 0.032028
vt 0.177077 0.010815
vt 0.225377 0.000000
vt 0.274622 0.000000
vt 0.322922 0.010814
vt 0.971547 0.414713
vt 0.944187 0.460803
vt 0.909365 0.500001
vt 0.868419 0.530798
vt 0.822922 0.552011
vt 0.774622 0.562825
vt 0.725377 0.562825
vt 0.677077 0.552011
vt 0.590634 0.500000
vt 0.555812 0.460802
vt 0.528453 0.414711
vt 0.509607 0.363497
vt 0.509607 0.199327
vt 0.555813 0.102022
vt 0.590635 0.062825
vt 0.631581 0.032028
vt 0.677078 0.010814
vt 0.725378 0.000000
vt 0.774624 0.000000
vt 0.822923 0.010815
vt 0.909367 0.062826
vt 0.944188 0.102023
vt 0.971548 0.148115
vt 0.990393 0.199329
vt 1.000000 0.253697
vt 1.000000 0.309130
vt 0.990393 0.363499
vn 0.098000 0.000000 -0.995200
vn 0.290300 0.000000 -0.956900
vn 0.471400 0.000000 -0.881900
vn 0.634400 0.000000 -0.773000
vn 0.773000 0.000000 -0.634400
vn 0.881900 -0.000000 -0.471400
vn 0.956900 -0.000000 -0.290300
vn 0.995200 0.000000 -0.098000
vn 0.995200 -0.000000 0.098000
vn 0.956900 -0.000000 0.290300
vn 0.881900 0.000000 0.471400
vn 0.773000 0.000000 0.634400
vn 0.634400 0.000000 0.773000
vn 0.471400 0.000000 0.881900
vn 0.290300 0.000000 0.956900
vn 0.098000 0.000000 0.995200
vn -0.098000 0.000000 0.995200
vn -0.290300 0.000000 0.956900
vn -0.471400 0.000000 0.881900
vn -0.634400 0.000000 0.773000
vn -0.773000 0.000000 0.634400
vn -0.881900 -0.000000 0.471400
vn -0.956900 0.000000 0.290300
vn -0.995200 -0.000000 0.098000
vn -0.995200 0.000000 -0.098000
vn -0.956900 0.000000 -0.290300
vn -0.881900 0.000000 -0.471400
vn -0.773000 0.000000 -0.634400
vn -0.634400 0.000000 -0.773000
vn -0.471400 0.000000 -0.881900
vn -0.000000 1.000000 0.000000
vn -0.098000 0.000000 -0.995200
vn -0.290300 0.000000 -0.956900
vn -0.000000 -1.000000 -0.000000
s 1
f 1/1/1 2/2/1 3/3/1
f 2/2/2 4/4/2 5/5/2
f 4/4/3 6/6/3 7/7/3
f 6/8/4 8/9/4 9/10/4
f 8/9/5 10/11/5 11/12/5
f 10/11/6 12/13/6 13/14/6
f 12/13/7 14/15/7 15/16/7
f 14/15/8 16/17/8 17/18/8
f 16/17/9 18/19/9 19/20/9
f 18/19/10 20/21/10 21/22/10
f 20/21/11 22/23/11 23/24/11
f 22/23/12 24/25/12 25/26/12
f 24/27/13 26/28/13 27/29/13
f 26/28/14 28/30/14 29/31/14
f 28/30/15 30/32/15 31/33/15
f 30/32/16 32/34/16 33/35/16
f 32/34/17 34/36/17 35/1/17
f 34/36/18 36/37/18 37/2/18
f 36/37/19 38/38/19 39/4/19
f 38/38/20 40/39/20 41/6/20
f 40/39/21 42/40/21 43/9/21
f 42/40/22 44/41/22 45/11/22
f 44/41/23 46/42/23 47/13/23
f 46/42/24 48/43/24 49/15/24
f 48/43/25 50/44/25 51/17/25
f 50/44/26 52/45/26 53/19/26
f 52/45/27 54/46/27 55/21/27
f 54/46/28 56/27/28 57/23/28
f 56/29/29 58/31/29 59/47/29
f 58/31/30 60/33/30 61/48/30
f 36/49/31 20/50/31 52/51/31
f 62/35/32 1/1/32 63/52/32
f 60/33/33 62/35/33 64/53/33
f 31/54/34 47/55/34 15/56/34
f 63/52/1 1/1/1 3/3/1
f 3/3/2 2/2/2 5/5/2
f 5/5/3 4/4/3 7/7/3
f 7/57/4 6/8/4 9/10/4
f 9/10/5 8/9/5 11/12/5
f 11/12/6 10/11/6 13/14/6
f 13/14/7 12/13/7 15/16/7
f 15/16/8 14/15/8 17/18/8
f 17/18/9 16/17/9 19/20/9
f 19/20/10 18/19/10 21/22/10
f 21/22/11 20/21/11 23/24/11
f 23/24/12 22/23/12 25/26/12
f 25/58/13 24/27/13 27/29/13
f 27/29/14 26/28/14 29/31/14
f 29/31/15 28/30/15 31/33/15
f 31/33/16 30/32/16 33/35/16
f 33/35/17 32/34/17 35/1/17
f 35/1/18 34/36/18 37/2/18
f 37/2/19 36/37/19 39/4/19
f 39/4/20 38/38/20 41/6/20
f 41/8/21 40/39/21 43/9/21
f 43/9/22 42/40/22 45/11/22
f 45/11/23 44/41/23 47/13/23
f 47/13/24 46/42/24 49/15/24
f 49/15/25 48/43/25 51/17/25
f 51/17/26 50/44/26 53/19/26
f 53/19/27 52/45/27 55/21/27
f 55/21/28 54/46/28 57/23/28
f 57/59/29 56/29/29 59/47/29
f 59/47/30 58/31/30 61/48/30
f 4/60/31 2/61/31 1/62/31
f 1/62/31 62/63/31 4/60/31
f 60/64/31 58/65/31 56/66/31
f 56/66/31 54/67/31 52/51/31
f 52/51/31 50/68/31 48/69/31
f 48/69/31 46/70/31 52/51/31
f 44/71/31 42/72/31 36/49/31
f 40/73/31 38/74/31 36/49/31
f 36/49/31 34/75/31 32/76/31
f 32/76/31 30/77/31 28/78/31
f 28/78/31 26/79/31 24/80/31
f 24/80/31 22/81/31 20/50/31
f 20/50/31 18/82/31 16/83/31
f 16/83/31 14/84/31 20/50/31
f 12/85/31 10/86/31 8/87/31
f 8/87/31 6/88/31 4/60/31
f 4/60/31 62/63/31 60/64/31
f 60/64/31 56/66/31 4/60/31
f 52/51/31 46/70/31 44/71/31
f 42/72/31 40/73/31 36/49/31
f 36/49/31 32/76/31 20/50/31
f 28/78/31 24/80/31 20/50/31
f 20/50/31 14/84/31 12/85/31
f 12/85/31 8/87/31 20/50/31
f 4/60/31 56/66/31 52/51/31
f 52/51/31 44/71/31 36/49/31
f 32/76/31 28/78/31 20/50/31
f 20/50/31 8/87/31 4/60/31
f 4/60/31 52/51/31 20/50/31
f 64/53/32 62/35/32 63/52/32
f 61/48/33 60/33/33 64/53/33
f 64/89/34 63/90/34 3/91/34
f 3/91/34 5/92/34 7/93/34
f 7/93/34 9/94/34 11/95/34
f 11/95/34 13/96/34 7/93/34
f 15/56/34 17/97/34 19/98/34
f 19/98/34 21/99/34 15/56/34
f 23/100/34 25/66/34 31/54/34
f 27/65/34 29/101/34 31/54/34
f 31/54/34 33/102/34 35/103/34
f 35/103/34 37/104/34 39/105/34
f 39/105/34 41/106/34 43/107/34
f 43/107/34 45/108/34 47/55/34
f 47/55/34 49/109/34 51/110/34
f 51/110/34 53/111/34 55/112/34
f 55/112/34 57/113/34 64/89/34
f 59/114/34 61/115/34 64/89/34
f 64/89/34 3/91/34 15/56/34
f 7/93/34 13/96/34 15/56/34
f 15/56/34 21/99/34 23/100/34
f 25/66/34 27/65/34 31/54/34
f 31/54/34 35/103/34 47/55/34
f 39/105/34 43/107/34 47/55/34
f 47/55/34 51/110/34 64/89/34
f 57/113/34 59/114/34 64/89/34
f 3/91/34 7/93/34 15/56/34
f 15/56/34 23/100/34 31/54/34
f 35/103/34 39/105/34 47/55/34
f 51/110/34 55/112/34 64/89/34
f 64/89/34 15/56/34 47/55/34
